<svg xmlns="http://www.w3.org/2000/svg" aria-hidden="true" style="width:0;height:0;position:absolute;overflow:hidden"><defs><symbol id="icon-magnifying" viewBox="0 0 32 32"><path d="M4.024 4.024C6.619 1.429 10.069 0 13.739 0s7.12 1.429 9.715 4.024a13.649 13.649 0 0 1 4.024 9.715 13.64 13.64 0 0 1-3.383 9.029l7.63 7.63a.937.937 0 1 1-1.326 1.327l-7.63-7.63a13.635 13.635 0 0 1-9.029 3.383c-3.67 0-7.12-1.429-9.715-4.024S.001 17.409.001 13.739s1.429-7.12 4.024-9.715zm1.327 18.103c4.625 4.625 12.15 4.625 16.775 0s4.625-12.15 0-16.775c-2.313-2.313-5.35-3.469-8.388-3.469S7.663 3.04 5.35 5.352c-4.625 4.625-4.625 12.15 0 16.775z"/></symbol><symbol id="icon-close" viewBox="0 0 32 32"><path d="M1.646 32a1.646 1.646 0 0 1-1.163-2.811L29.19.482a1.646 1.646 0 1 1 2.328 2.329L2.811 31.517A1.65 1.65 0 0 1 1.646 32z"/><path d="M30.355 32c-.421 0-.843-.16-1.163-.483L.483 2.811A1.647 1.647 0 0 1 2.812.482l28.707 28.707A1.646 1.646 0 0 1 30.356 32z"/></symbol><symbol id="icon-select" viewBox="0 0 52 32"><path d="M26 32 .019 2h51.962L26 32z"/></symbol><symbol id="icon-ticket1-1" viewBox="0 0 45 32"><path d="M5.02 1.569H0v30.118h5.02V1.569zm12.625 0h-5.02v30.118h5.02V1.569zm7.605 0h-5.019v30.118h5.019V1.569zm19.927 0h-7.453v30.118h7.453V1.569zm-35.138 0H7.605v30.118h2.434V1.569zm20.079 0h-2.434v30.118h2.434V1.569zm5.019 0h-2.434v30.118h2.434V1.569z"/></symbol><symbol id="icon-logo" viewBox="0 0 38 32"><path fill="#fff" d="M13.66 13.723c-.198-.458-.604-.687-1.22-.687h-.194v2.826h.194c.476 0 .827-.156 1.054-.469.191-.267.286-.607.286-1.02 0-.245-.04-.462-.12-.65zm-3.334.034c.198.458.604.687 1.22.687h.194v-2.826h-.194c-.476 0-.827.156-1.054.469-.19.267-.286.607-.286 1.02 0 .245.04.462.12.65zM7.093 7.104h2.585v.749H8.021v.374h1.377v.71H8.021v.379h1.657v.749H7.093v-2.96zm3.885-.004h3.344l-1.672 3.024L10.978 7.1zm1.672 2.65 1.382-2.492h-2.758l1.377 2.492zm3.008-2.646h2.585v.749h-1.657v.374h1.377v.71h-1.377v.379h1.657v.749h-2.585v-2.96zm4.175 2.956V7.1h.199l2.478 2.012V7.1h.189v2.96l-2.865-.001zm5.572.004V7.852h-1.341v-.749h2.865v.749h-1.341v2.212h-.184zM8.617 12.207c.224 0 .403.028.535.085.152.062.28.159.369.28a.65.65 0 0 1-.002.786.907.907 0 0 1-.362.279c.184.054.345.152.464.281.123.128.19.287.189.451a.68.68 0 0 1-.135.406.925.925 0 0 1-.359.291 1.116 1.116 0 0 1-.25.077 2.094 2.094 0 0 1-.367.026h-1.57v-2.96h1.489zm5.978 2.746c-.267-.194-.399-.486-.395-.874h.831c-.003.162.054.285.173.37s.286.128.5.128c.177 0 .316-.024.418-.072s.153-.122.153-.221c0-.082-.052-.142-.155-.179a1.677 1.677 0 0 0-.308-.079 7.696 7.696 0 0 0-.189-.028 4.8 4.8 0 0 1-.678-.156c-.185-.057-.35-.152-.479-.276s-.194-.289-.194-.493c0-.204.065-.378.194-.521s.302-.25.517-.321c.225-.072.465-.108.706-.106.309 0 .577.048.803.145s.404.242.533.438c.06.083.1.175.117.27.013.084.02.168.02.253h-.831c0-.153-.049-.266-.148-.338s-.252-.108-.459-.108c-.166 0-.296.024-.387.072s-.138.113-.138.196c0 .091.061.157.184.2.15.05.306.088.464.115.306.051.545.1.716.147.173.048.327.134.446.249.126.119.189.286.189.502 0 .204-.068.38-.204.527s-.315.26-.538.338a2.162 2.162 0 0 1-.721.117c-.493 0-.873-.098-1.139-.292zm4.693.215v-2.212h-1.341v-.749h2.865v.749h-1.341v2.212h-.184zm2.488-2.961h2.585v.749h-1.657v.374h1.377v.71h-1.377v.379h1.657v.749h-2.585v-2.96zm6.413 2.961h-2.727v-2.96h1.382c.296 0 .537.044.724.132.179.081.327.202.428.349a.847.847 0 0 1-.092 1.082 1.19 1.19 0 0 1-.617.347l.902 1.051zm-2.539-2.701v1.527h1.31l-1.31-1.527zm0 2.543h2.182l-.744-.863-.158.004h-1.28v.859zm.133-2.645 1.387 1.616c.223-.037.423-.138.566-.285a.714.714 0 0 0 .086-.944.857.857 0 0 0-.387-.293 1.551 1.551 0 0 0-.586-.094h-1.066z" style="fill:var(--color2,#fff)"/></symbol></defs></svg>